This is from Masterpiece Classic.                                                                      

                                                                                                    

The intro,credits,prologue,extras and next time are in separate files. 

 										

													

Enjoy and please share.										

													

													

													

		

TTLTTLTTLTTLTTLTTLTTLTTLTTLTTLTTLTTLTTLTTLTTLTTLTTLTTLTTLTTLTTLTTLTTLTTL				

										

Masterpiece_Classic_Persuasion_720p.hdtv.x264-20110707_TTL.mkv
Format                           : Matroska
File size                        : 2.01 GiB
Duration                         : 1h 21mn
Overall bit rate                 : 3 514 Kbps
Movie name                       : Masterpiece_Classic_Persuasion_720p_20110707_TTL.mpg
Writing application              : SUPER(C)   
Writing library                  : SUPER(C)   

Video
ID                               : 1
Format                           : AVC
Format/Info                      : Advanced Video Codec
Format profile                   : Baseline@L1.3
Format settings, CABAC           : No
Format settings, ReFrames        : 1 frame
Muxing mode                      : Container profile=Unknown@1.3
Codec ID                         : V_MPEG4/ISO/AVC
Duration                         : 1h 21mn
Bit rate                         : 3 188 Kbps
Width                            : 1 280 pixels
Height                           : 720 pixels
Display aspect ratio             : 16:9
Frame rate                       : 29.970 fps
Resolution                       : 8 bits
Colorimetry                      : 4:2:0
Scan type                        : Progressive
Bits/(Pixel*Frame)               : 0.115
Stream size                      : 1.82 GiB (91%)

Audio
ID                               : 2
Format                           : AC-3
Format/Info                      : Audio Coding 3
Codec ID                         : A_AC3
Duration                         : 1h 21mn
Bit rate mode                    : Constant
Bit rate                         : 256 Kbps
Channel(s)                       : 2 channels
Channel positions                : L R
Sampling rate                    : 48.0 KHz
Resolution                       : 16 bits
Stream size                      : 150 MiB (7%)





